Motion_mu02
version=1
nRows=10
nColumns=43
inDegrees=yes
endheader
time	pelvis_tilt	pelvis_list	pelvis_rotation	pelvis_tx	pelvis_ty	pelvis_tz	hip_flexion_r	hip_adduction_r	hip_rotation_r	knee_angle_r	ankle_angle_r	subtalar_angle_r	mtp_angle_r	hip_flexion_l	hip_adduction_l	hip_rotation_l	knee_angle_l	ankle_angle_l	subtalar_angle_l	mtp_angle_l	lumbar_extension	lumbar_bending	lumbar_rotation	neck_flexion	neck_lateral_bending	neck_rotation	arm_flex_r	arm_add_r	arm_rot_r	elbow_flex_r	pro_sup_r	wrist_flex_r	wrist_dev_r	hand_finger_flex_r	arm_flex_l	arm_add_l	arm_rot_l	elbow_flex_l	pro_sup_l	wrist_flex_l	wrist_dev_l	hand_finger_flex_l
      1.62500000	     -3.34206374	    -63.02816925	    -81.61977400	      0.00339265	      1.63994781	      1.04042388	     33.65977008	    -13.52074228	     -6.24038598	   -100.17862998	    -13.95183667	     -5.47623624	    -12.81999783	     33.71103704	     -6.28797121	     10.25777055	   -106.99984253	     27.92343619	      5.75341990	    -21.89249073	    -28.38128506	      2.85269923	      1.76059425	    -45.08256502	      0.06577493	     -6.37170066	   -203.88919935	   -149.25580160	   -208.38931226	    123.11961462	    144.31479781	     17.38600761	     -5.45812308	     64.61329613	   -173.30207720	    205.66995782	   -176.18123165	    116.49176156	    160.34851139	     -0.49158879	     10.61087802	     90.00021046
      1.62750000	     -3.33927384	    -62.62025417	    -81.52466185	      0.00332155	      1.64353063	      1.04069517	     33.58852096	    -13.47398491	     -6.37828935	    -99.63196510	    -14.07318444	     -5.42829543	    -12.84140183	     33.81349030	     -6.17242398	     10.36469441	   -106.56423448	     27.91173141	      5.75679360	    -21.89684327	    -28.44516892	      2.92849130	      1.74612503	    -44.98241603	     -0.01467719	     -6.31273577	   -204.71313813	   -149.37858001	   -208.60009501	    123.54609315	    144.27524321	     17.39211024	     -5.44390504	     64.63448716	   -174.12491038	    205.75462220	   -176.51630298	    117.07080432	    160.35569465	     -0.53960191	     10.61150659	     90.00021046
      1.63000000	     -3.40208102	    -62.32097654	    -81.49428609	      0.00323706	      1.64704812	      1.04085259	     33.45115751	    -13.37123495	     -6.49894347	    -99.03845208	    -14.67729300	     -5.28954973	    -12.92890791	     33.81581820	     -6.12051131	     10.49196567	   -106.12234031	     27.87884634	      5.75044315	    -21.90789982	    -28.69041462	      3.08513024	      1.59518915	    -44.35298571	     -0.40588856	     -6.22714844	   -205.34682448	   -149.32701661	   -208.59466785	    124.05914952	    144.27119736	     17.45232663	     -5.41111265	     64.69893028	   -175.11450576	    205.86850139	   -177.07690916	    117.78901256	    160.44767647	     -0.56524918	     10.59610681	     90.00021046
      1.63250000	     -3.39141446	    -61.96383621	    -81.44326618	      0.00303933	      1.65062663	      1.04108412	     33.35387255	    -13.25694791	     -6.55652903	    -98.47213783	    -14.87869477	     -5.24920190	    -12.96070379	     33.84615901	     -6.06814589	     10.53156651	   -105.66126891	     27.86526717	      5.75045275	    -21.91145239	    -28.82276216	      3.13247947	      1.58427346	    -44.37265051	     -0.48827413	     -6.19203654	   -206.09129734	   -149.44935733	   -208.73229853	    124.44137642	    144.24639300	     17.47880115	     -5.39915514	     64.74376640	   -175.96478694	    205.97387014	   -177.47619868	    118.40215277	    160.47531828	     -0.60596978	     10.60548047	     90.00021046
      1.63500000	     -3.45103842	    -61.70092261	    -81.45879244	      0.00285807	      1.65412098	      1.04121238	     33.19770234	    -13.10203692	     -6.62911713	    -97.83831538	    -15.61155572	     -5.15210946	    -13.06864523	     33.79006976	     -6.06376827	     10.59276584	   -105.18148588	     27.85947246	      5.70430218	    -21.91271539	    -29.12715680	      3.27072644	      1.38182440	    -43.73978284	     -0.94571348	     -6.11028440	   -206.59985783	   -149.34852513	   -208.57499203	    124.90742243	    144.25407281	     17.57196113	     -5.39475340	     64.88523272	   -177.01796361	    206.07399449	   -178.15798648	    119.16956221	    160.60538524	     -0.58227848	     10.61262461	     90.00021046
      1.63750000	     -3.42431760	    -61.32377525	    -81.40443624	      0.00256048	      1.65759223	      1.04151738	     33.13493060	    -12.98108629	     -6.68465676	    -97.25537136	    -15.75695848	     -5.13921212	    -13.09483378	     33.83961540	     -6.02565423	     10.61742313	   -104.70890925	     27.84626832	      5.69552386	    -21.91312971	    -29.24886088	      3.28362568	      1.37962085	    -43.79098627	     -0.99983786	     -6.07022197	   -207.33434784	   -149.48992039	   -208.70645984	    125.25613179	    144.23235807	     17.58932068	     -5.39135447	     64.94381045	   -177.84447009	    206.19229801	   -178.54479495	    119.75451820	    160.62778320	     -0.60696172	     10.62923771	     90.00021046
      1.64000000	     -3.42017291	    -60.97184054	    -81.38801676	      0.00236897	      1.66095323	      1.04177401	     33.07680824	    -12.87197550	     -6.72775209	    -96.67872912	    -16.05199788	     -5.09318681	    -13.14031011	     33.88719466	     -5.99809226	     10.63529865	   -104.24885319	     27.83448005	      5.66422335	    -21.91065313	    -29.44052812	      3.34214077	      1.34973108	    -43.58263908	     -1.13076024	     -6.03111957	   -208.04448757	   -149.56635423	   -208.79851142	    125.67533762	    144.22161713	     17.60568251	     -5.40480643	     65.02973622	   -178.70817840	    206.29417632	   -179.00582336	    120.39344865	    160.66498741	     -0.61947237	     10.65874090	     90.00021046
      1.64250000	     -3.46981301	    -60.69867025	    -81.44066085	      0.00212111	      1.66426733	      1.04194714	     32.96758398	    -12.68147541	     -6.73371672	    -96.03033368	    -16.81730800	     -5.04102342	    -13.25990031	     33.84740444	     -6.03336049	     10.61890179	   -103.73759947	     27.81799392	      5.54462469	    -21.89550776	    -29.77460562	      3.45093942	      1.13329514	    -42.84080831	     -1.57559064	     -5.92737530	   -208.47723943	   -149.41571922	   -208.55945403	    126.11673919	    144.30302727	     17.63048597	     -5.46505191	     65.27334979	   -179.79544076	    206.38160470	   -179.73001358	    121.17638542	    160.78571909	     -0.52296953	     10.72776564	     90.00021046
      1.64500000	     -3.43199324	    -60.31196272	    -81.40329656	      0.00182069	      1.66759788	      1.04227258	     32.93149577	    -12.57997977	     -6.77187275	    -95.42965453	    -16.94597270	     -5.04642082	    -13.28688844	     33.91860096	     -6.00378883	     10.61285223	   -103.24670132	     27.79951022	      5.52258763	    -21.89167486	    -29.90558442	      3.44621268	      1.13198276	    -42.89322181	     -1.61876026	     -5.88186347	   -209.16942167	   -149.57197776	   -208.66025753	    126.41198650	    144.31818547	     17.62225674	     -5.47324106	     65.36351251	   -180.61184037	    206.52225274	   -180.12123723	    121.74238606	    160.80743400	     -0.52964399	     10.76605018	     90.00021046
      1.64750000	     -3.42925249	    -59.97591892	    -81.43037736	      0.00152720	      1.67080142	      1.04249732	     32.90780508	    -12.41861541	     -6.74618304	    -94.77101220	    -17.63836029	     -5.06148498	    -13.40953105	     33.93387426	     -6.01728114	     10.55857335	   -102.72508403	     27.76549552	      5.37075277	    -21.86670905	    -30.18168229	      3.49581826	      0.88197086	    -42.20835404	     -2.03387351	     -5.73857501	   -209.52248403	   -149.45126799	   -208.36112115	    126.74912784	    144.54730241	     17.54629138	     -5.56506046	     65.73720741	   -181.76859129	    206.61811516	   -180.92612082	    122.56438331	    160.93195327	     -0.40947101	     10.91880762	     90.00021046
